<?xml version="1.0" encoding="UTF-8"?>
<svg id="Warstwa_1" data-name="Warstwa 1" xmlns="http://www.w3.org/2000/svg" viewBox="0 0 1105.56 351.08">
  <defs>
    <style>
      .cls-1 {
        fill: rgb(39, 39, 48);
      }

      .cls-2 {
        isolation: isolate;
      }

      .cls-3 {
        fill: #4caf50;
      }
    </style>
  </defs>
  <g id="Warstwa_1-2" data-name="Warstwa 1">
    <g>
      <path class="cls-1" d="M67.42,149.83h47.23c3.57,0,6.48-2.9,6.48-6.48v-47.23c0-3.57-2.9-6.48-6.48-6.48h-47.23c-3.57,0-6.48,2.9-6.48,6.48v47.23c0,3.57,2.9,6.48,6.48,6.48ZM72.37,101.07h37.33v37.33h-37.33s0-37.33,0-37.33Z"/>
      <path class="cls-1" d="M114.65,248.1h-47.23c-3.57,0-6.48,2.9-6.48,6.48v47.23c0,3.57,2.9,6.48,6.48,6.48h47.23c3.57,0,6.48-2.9,6.48-6.48v-47.23c0-3.57-2.9-6.48-6.48-6.48ZM109.7,296.85h-37.33v-37.33h37.33v37.33h0Z"/>
      <path class="cls-3" d="M131.64,178.62l-12.19,12.19h0l-18.28,18.28c-1.12,1.12-2.58,1.67-4.04,1.67s-2.92-.55-4.04-1.67l-12.19-12.19c-2.23-2.23-2.23-5.85,0-8.08s5.85-2.23,8.08,0l8.15,8.15,12.57-12.57,9.75-9.76,4.11-4.11c2.23-2.23,5.85-2.23,8.08,0s2.23,5.85,0,8.08h0Z"/>
      <path class="cls-1" d="M121.12,211.15v6.1c0,6.51-5.3,11.8-11.8,11.8h-36.57c-6.51,0-11.8-5.3-11.8-11.8v-36.57c0-6.51,5.3-11.8,11.8-11.8h36.57c4.3,0,8.07,2.32,10.14,5.78l-9.75,9.76v-3.73c0-.21-.17-.38-.38-.38h-36.57c-.21,0-.38.17-.38.38v36.57c0,.21.17.38.38.38h36.57c.21,0,.38-.17.38-.38v-6.1c0-3.15,2.56-5.71,5.71-5.71s5.71,2.56,5.71,5.71h0Z"/>
      <path class="cls-1" d="M139.79,107.17h18.28c3.16,0,5.71-2.56,5.71-5.71s-2.56-5.71-5.71-5.71h-18.28c-3.16,0-5.71,2.56-5.71,5.71s2.56,5.71,5.71,5.71Z"/>
      <path class="cls-1" d="M174.63,216.33c-4.66-2.21-8.67-5.59-11.62-9.79-.26-.36-.48-.74-.72-1.11h-22.51c-3.16,0-5.71,2.56-5.71,5.71s2.56,5.71,5.71,5.71h36.1c-.42-.18-.85-.34-1.26-.53h0Z"/>
      <path class="cls-1" d="M158.38,192.3l-.04-.34-.03-.34c-.32-3.64-.47-7.13-.48-10.56h-18.03c-3.16,0-5.71,2.56-5.71,5.71s2.56,5.71,5.71,5.71h18.61c0-.06-.02-.13-.02-.19h-.01Z"/>
      <path class="cls-1" d="M179.11,120.12h-39.32c-3.16,0-5.71,2.56-5.71,5.71s2.56,5.71,5.71,5.71h30.65c2.52-4.11,5.41-7.93,8.66-11.43h0Z"/>
      <path class="cls-1" d="M139.79,271.71h24.38c3.16,0,5.71-2.56,5.71-5.71s-2.56-5.71-5.71-5.71h-24.38c-3.16,0-5.71,2.56-5.71,5.71s2.56,5.71,5.71,5.71Z"/>
      <path class="cls-1" d="M231.2,284.66h-91.41c-3.16,0-5.71,2.56-5.71,5.71s2.56,5.71,5.71,5.71h91.41c3.16,0,5.71-2.56,5.71-5.71s-2.56-5.71-5.71-5.71Z"/>
    </g>
  </g>
  <g id="Warstwa_2" data-name="Warstwa 2">
    <g>
      <path class="cls-3" d="M245.08,213.64c-4.13.57-7.01,4.41-6.43,8.54.41,3.02-.19,6.08-1.72,8.75-.09.15-.28.41-.53.74-.52.61-1.42,1.44-2.6,2.31-1.04.75-2.25,1.53-3.62,2.32-2.37,1.39-5.14,2.72-7.9,3.96-3.03,1.31-6.02,2.48-8.68,3.44-.25-1.6-.54-3.36-.77-5.19-.28-2.19-.55-4.52-.72-6.78-.26-3.44-.34-6.8-.06-9.48.11-1.36.32-2.52.55-3.44s.5-1.5.65-1.75c1.53-2.63,3.93-4.72,6.76-5.85,3.87-1.53,5.78-5.97,4.21-9.84-1.68-3.92-6.08-5.84-9.94-4.27-5.96,2.38-10.98,6.7-14.22,12.26-.65,1.11-1.16,2.27-1.57,3.45-.76,2.17-1.2,4.38-1.47,6.59-.26,1.95-.33,3.94-.36,5.96-.02,3.51.2,7.09.55,10.51.54,5.12,1.33,9.92,2.01,13.46.68,3.54,1.2,5.85,1.22,5.93.49,2.01,1.75,3.73,3.53,4.8,1.82,1.06,3.94,1.31,5.93.75.08-.02,2.03-.58,5.06-1.59,2.24-.76,5.1-1.77,8.2-2.97,2.33-.91,4.79-1.95,7.27-3.11,3.74-1.71,7.46-3.68,10.83-5.98,1.71-1.14,3.31-2.37,4.78-3.78s2.81-2.97,3.94-4.85c3.28-5.57,4.56-12.07,3.65-18.46-.57-4.13-4.41-7.01-8.54-6.43h0Z"/>
      <path class="cls-3" d="M356.05,52.83c-.39-7.17-1.3-13.86-2.88-19.86-1.06-4.04-2.44-7.79-4.24-11.21l-.08.02c-.84-1.57-2.09-2.91-3.56-3.77-1.53-.92-3.37-1.42-5.24-1.36l.08-.02c-3.79.06-7.69.7-11.73,1.76-3.92,1.03-7.99,2.49-12.18,4.28-7.31,3.12-14.92,7.35-22.66,12.39-11.56,7.58-23.25,16.99-33.82,27.53-10.56,10.57-20.07,22.23-27.18,34.38-3.61,6.13-6.76,12.52-9.43,19.09-1.21.28-2.42.55-3.62.87-3.96,1.04-7.81,2.36-11.54,4.11-3.7,1.7-7.25,3.84-10.51,6.41-5.94,4.73-10.41,10.36-13.64,16.26-2.43,4.41-4.18,8.97-5.49,13.43-1.91,6.71-2.76,13.22-3.04,18.99s0,10.74.32,14.38c.08.62.17,1.28.33,1.88.36,1.36.96,2.66,1.76,3.77,1.18,1.7,2.77,3.04,4.63,3.92s4.02,1.29,6.19,1.07c.62-.08,1.28-.17,1.88-.33.4-.11.79-.25,1.15-.35h.04l28.63-11.02c.12.31.26.66.38.97,1.3,3.47,3.78,6.4,7.05,8.24l18.05,10.52c3.25,1.93,6.98,2.61,10.68,2.06.33-.04.7-.1,1.02-.18l4.51,30.26.02.08c.07.41.16.77.27,1.17.38,1.44,1.03,2.77,1.9,3.95,1.27,1.72,2.95,3.07,4.93,3.92,1.98.85,4.24,1.15,6.45.78.41-.07.77-.16,1.17-.27.6-.16,1.19-.36,1.8-.65,2.95-1.29,6.85-3.22,11.1-5.79,3.18-1.91,6.59-4.22,9.98-6.95,5.09-4.08,10.13-9.13,14.32-15.33,2.1-3.08,3.94-6.47,5.45-10.16s2.65-7.63,3.29-11.86c.62-4.14.73-8.28.37-12.38s-1.08-8.15-2.12-12.11c-.3-1.12-.63-2.23-.97-3.34,4.43-5.58,8.41-11.42,11.96-17.61,5.43-9.26,9.91-19.55,13.55-30.23,5.4-16.05,8.84-33.01,10.22-48.9.68-7.97.85-15.63.45-22.8h0ZM320.15,103.65c-.39,3.03-1.35,5.97-2.99,8.77s-3.72,5.09-6.16,6.92-5.19,3.11-8.08,3.87-5.9,1-8.93.61-5.9-1.37-8.77-2.99c-2.8-1.63-5.09-3.72-6.92-6.16-1.83-2.44-3.11-5.19-3.87-8.08-.76-2.88-1.02-5.98-.61-8.93.39-3.03,1.35-5.97,2.99-8.77s3.72-5.09,6.16-6.92,5.19-3.11,8.08-3.87c2.88-.76,5.98-1.02,8.93-.61,3.03.39,5.97,1.35,8.77,2.99,2.8,1.63,5.09,3.72,6.92,6.16,1.83,2.44,3.09,5.12,3.87,8.08.76,2.88,1.02,5.98.61,8.93Z"/>
    </g>
    <path class="cls-1" d="M299.42,259.5c-5.24,3.18-9.9,5.42-12.94,6.76-1.47.67-2.98,1.21-4.62,1.65-.6.16-1.59.42-2.86.63-1.57.26-3.18.39-4.78.39h0c-2.03,0-4.07-.22-6.07-.63v50.16c0,.19-.18.34-.38.34H36.18c-.21,0-.38-.15-.38-.34V60.11c0-.19.18-.34.38-.34h48.75c.07,0,.14,0,.21,0,5.49,6.67,14.28,11,24.17,11h85.32c9.89,0,18.69-4.33,24.17-11,.07,0,.13,0,.2,0h18.91c3.06-3.47,6.29-6.92,9.71-10.34,7.89-7.85,16.53-15.29,25.45-21.96h-48.36v-.34c0-5.88-5.3-10.65-11.8-10.65h-30.85v-.34c0-8.9-8.03-16.14-17.9-16.14h-24.38c-9.87,0-17.9,7.24-17.9,16.14v.34h-30.85c-6.51,0-11.8,4.78-11.8,10.65v.34H30.1c-16.6,0-30.1,12.19-30.1,27.15v269.32c0,14.96,13.5,27.14,30.1,27.14h243.76c16.59,0,30.09-12.18,30.09-27.14v-67.33c-1.48.99-2.99,1.97-4.53,2.89h0ZM133.32,16.14c0-3.22,2.9-5.84,6.47-5.84h24.38c3.57,0,6.47,2.62,6.47,5.84v.34h-37.32v-.34ZM90.65,27.14c0-.19.17-.34.38-.34h121.89c.21,0,.38.15.38.34v16.48c0,9.28-8.37,16.83-18.67,16.83h-85.32c-10.29,0-18.67-7.55-18.67-16.83v-16.48h0Z"/>
  </g>
  <g id="Warstwa_3" data-name="Warstwa 3">
    <g class="cls-2">
      <g class="cls-2">
        <path class="cls-1" d="M501.9,163.89h-76.67V30.76h76.67v23.13h-48.44v29.23h45.07v23.13h-45.07v34.33h48.44v23.31Z"/>
        <path class="cls-1" d="M548.34,111.9l-32.78-49.81h31.51l19.76,32.42,19.94-32.42h31.51l-33.15,49.81,34.69,52h-31.6l-21.4-34.88-21.49,34.88h-31.51l34.51-52Z"/>
        <path class="cls-1" d="M677,59.99c13.66,0,24.13,2.98,31.42,8.92,7.29,5.95,10.93,15,10.93,27.14v67.84h-19.4l-5.37-13.84h-.73c-2.91,3.64-5.89,6.62-8.92,8.92-3.04,2.31-6.53,4.01-10.47,5.1-3.95,1.09-8.74,1.64-14.39,1.64-6.01,0-11.4-1.15-16.16-3.46-4.77-2.31-8.51-5.84-11.25-10.61-2.73-4.77-4.1-10.82-4.1-18.17,0-10.8,3.79-18.77,11.38-23.9,7.59-5.13,18.97-7.97,34.15-8.51l17.67-.55v-4.46c0-5.34-1.4-9.26-4.19-11.75-2.79-2.49-6.68-3.73-11.66-3.73s-9.74.7-14.48,2.09c-4.74,1.4-9.47,3.16-14.21,5.28l-9.2-18.76c5.4-2.85,11.46-5.1,18.17-6.74,6.71-1.64,13.64-2.46,20.81-2.46ZM691.76,116.72l-10.75.36c-8.98.24-15.22,1.85-18.71,4.83-3.49,2.98-5.24,6.89-5.24,11.75,0,4.25,1.24,7.27,3.73,9.06,2.49,1.79,5.74,2.69,9.74,2.69,5.95,0,10.97-1.76,15.07-5.28,4.1-3.52,6.15-8.53,6.15-15.02v-8.38Z"/>
        <path class="cls-1" d="M867.5,60.17c11.53,0,20.26,2.96,26.18,8.88s8.88,15.41,8.88,28.46v66.38h-27.86v-59.46c0-7.29-1.24-12.78-3.73-16.48-2.49-3.7-6.34-5.55-11.56-5.55-7.35,0-12.57,2.63-15.66,7.88-3.1,5.25-4.64,12.76-4.64,22.54v51.08h-27.77v-59.46c0-4.86-.55-8.92-1.64-12.2-1.09-3.28-2.76-5.74-5.01-7.38-2.25-1.64-5.13-2.46-8.65-2.46-5.16,0-9.21,1.29-12.16,3.87-2.95,2.58-5.04,6.37-6.28,11.38-1.25,5.01-1.87,11.12-1.87,18.35v47.9h-27.77V62.09h21.22l3.73,13.02h1.55c2.06-3.52,4.66-6.37,7.79-8.56,3.13-2.19,6.57-3.79,10.33-4.83,3.76-1.03,7.59-1.55,11.47-1.55,7.47,0,13.8,1.21,18.99,3.64,5.19,2.43,9.18,6.19,11.97,11.29h2.46c3.04-5.22,7.33-9.01,12.88-11.38,5.55-2.37,11.28-3.55,17.17-3.55Z"/>
      </g>
    </g>
    <g class="cls-2">
      <g class="cls-2">
        <path class="cls-1" d="M426.82,201.15h39.94c17.09,0,30.02,2.4,38.8,7.2,8.78,4.8,13.17,13.23,13.17,25.28,0,4.86-.78,9.25-2.33,13.17-1.55,3.92-3.79,7.14-6.72,9.66-2.93,2.52-6.5,4.16-10.71,4.92v.88c4.27.88,8.13,2.39,11.59,4.52,3.45,2.14,6.22,5.24,8.3,9.3,2.08,4.07,3.12,9.47,3.12,16.2,0,7.78-1.9,14.46-5.71,20.01-3.8,5.56-9.23,9.82-16.28,12.77-7.05,2.96-15.44,4.43-25.15,4.43h-48.02v-128.34ZM454.03,251.98h15.8c7.9,0,13.37-1.24,16.42-3.73,3.04-2.49,4.56-6.16,4.56-11.02s-1.8-8.44-5.4-10.58c-3.6-2.14-9.29-3.2-17.07-3.2h-14.31v28.53ZM454.03,273.57v33.45h17.73c8.19,0,13.9-1.58,17.12-4.74,3.22-3.16,4.83-7.4,4.83-12.73,0-3.16-.7-5.94-2.11-8.34-1.4-2.4-3.76-4.27-7.07-5.62-3.31-1.35-7.86-2.02-13.65-2.02h-16.85Z"/>
        <path class="cls-1" d="M634.69,280.24c0,8.19-1.1,15.45-3.29,21.77-2.2,6.32-5.39,11.66-9.57,16.02-4.19,4.36-9.22,7.65-15.1,9.88-5.88,2.22-12.51,3.34-19.88,3.34-6.91,0-13.24-1.11-19-3.34-5.77-2.22-10.77-5.52-15.01-9.88-4.24-4.36-7.52-9.7-9.83-16.02-2.31-6.32-3.47-13.58-3.47-21.77,0-10.89,1.93-20.1,5.79-27.65,3.86-7.55,9.36-13.28,16.5-17.21,7.14-3.92,15.65-5.88,25.54-5.88,9.19,0,17.34,1.96,24.45,5.88,7.11,3.92,12.7,9.66,16.77,17.21,4.07,7.55,6.1,16.77,6.1,27.65ZM566.84,280.24c0,6.44.7,11.85,2.11,16.24,1.4,4.39,3.6,7.7,6.58,9.92,2.98,2.22,6.88,3.34,11.67,3.34s8.59-1.11,11.54-3.34c2.95-2.22,5.12-5.53,6.5-9.92,1.37-4.39,2.06-9.8,2.06-16.24s-.69-11.89-2.06-16.2c-1.38-4.3-3.56-7.53-6.54-9.7-2.98-2.16-6.88-3.25-11.67-3.25-7.08,0-12.22,2.43-15.41,7.29-3.19,4.86-4.78,12.14-4.78,21.86Z"/>
        <path class="cls-1" d="M746,280.24c0,8.19-1.1,15.45-3.29,21.77-2.19,6.32-5.38,11.66-9.57,16.02-4.18,4.36-9.22,7.65-15.1,9.88s-12.51,3.34-19.88,3.34c-6.91,0-13.24-1.11-19-3.34-5.77-2.22-10.77-5.52-15.01-9.88-4.24-4.36-7.52-9.7-9.83-16.02-2.31-6.32-3.47-13.58-3.47-21.77,0-10.89,1.93-20.1,5.79-27.65,3.86-7.55,9.36-13.28,16.5-17.21,7.14-3.92,15.65-5.88,25.54-5.88,9.19,0,17.34,1.96,24.45,5.88,7.11,3.92,12.7,9.66,16.77,17.21,4.07,7.55,6.1,16.77,6.1,27.65ZM678.15,280.24c0,6.44.7,11.85,2.11,16.24,1.41,4.39,3.6,7.7,6.58,9.92,2.98,2.22,6.88,3.34,11.67,3.34s8.59-1.11,11.54-3.34c2.95-2.22,5.12-5.53,6.5-9.92,1.37-4.39,2.06-9.8,2.06-16.24s-.69-11.89-2.06-16.2c-1.38-4.3-3.56-7.53-6.54-9.7-2.98-2.16-6.88-3.25-11.67-3.25-7.08,0-12.22,2.43-15.41,7.29-3.19,4.86-4.78,12.14-4.78,21.86Z"/>
        <path class="cls-1" d="M836.59,300.35c0,6.67-1.57,12.3-4.7,16.9-3.13,4.6-7.8,8.08-14,10.45-6.2,2.37-13.93,3.56-23.17,3.56-6.85,0-12.71-.44-17.6-1.32-4.89-.88-9.82-2.34-14.79-4.39v-22.12c5.33,2.4,11.05,4.38,17.16,5.92,6.11,1.55,11.48,2.33,16.11,2.33,5.21,0,8.94-.77,11.19-2.33,2.25-1.55,3.38-3.58,3.38-6.1,0-1.64-.45-3.12-1.36-4.43-.91-1.32-2.85-2.81-5.84-4.48-2.98-1.67-7.67-3.85-14.04-6.54-6.14-2.57-11.19-5.18-15.14-7.81s-6.88-5.75-8.78-9.35c-1.9-3.6-2.85-8.18-2.85-13.74,0-9.07,3.52-15.9,10.58-20.5,7.05-4.59,16.49-6.89,28.31-6.89,6.09,0,11.89.62,17.42,1.84s11.22,3.19,17.07,5.88l-8.08,19.31c-4.86-2.11-9.44-3.83-13.74-5.18-4.3-1.35-8.68-2.02-13.12-2.02-3.92,0-6.88.53-8.87,1.58-1.99,1.05-2.99,2.66-2.99,4.83,0,1.58.51,2.99,1.54,4.21,1.02,1.23,3.01,2.59,5.97,4.08,2.95,1.49,7.3,3.41,13.04,5.75,5.56,2.28,10.39,4.67,14.48,7.15,4.1,2.49,7.26,5.56,9.48,9.22,2.22,3.66,3.33,8.38,3.33,14.18Z"/>
        <path class="cls-1" d="M898.83,309.92c2.93,0,5.78-.29,8.56-.88,2.78-.58,5.54-1.32,8.29-2.2v19.93c-2.87,1.29-6.42,2.36-10.67,3.2-4.24.85-8.88,1.27-13.91,1.27-5.85,0-11.1-.95-15.76-2.85-4.65-1.9-8.31-5.21-10.97-9.92-2.66-4.71-3.99-11.28-3.99-19.71v-47.31h-12.82v-11.32l14.75-8.95,7.72-20.72h17.12v20.89h27.48v20.1h-27.48v47.31c0,3.75,1.07,6.54,3.2,8.38,2.14,1.84,4.96,2.77,8.47,2.77Z"/>
        <path class="cls-1" d="M975.99,229.5c9.07,0,16.88,1.74,23.44,5.22,6.55,3.48,11.62,8.53,15.19,15.14,3.57,6.61,5.35,14.69,5.35,24.23v12.99h-63.29c.29,7.55,2.56,13.47,6.8,17.78,4.24,4.3,10.14,6.45,17.69,6.45,6.26,0,12-.64,17.21-1.93,5.21-1.29,10.56-3.22,16.06-5.79v20.72c-4.86,2.4-9.93,4.16-15.23,5.27-5.3,1.11-11.72,1.67-19.27,1.67-9.83,0-18.54-1.81-26.12-5.44-7.58-3.63-13.52-9.16-17.82-16.59-4.3-7.43-6.45-16.79-6.45-28.09s1.95-21.02,5.84-28.66c3.89-7.64,9.32-13.37,16.28-17.21,6.96-3.83,15.07-5.75,24.32-5.75ZM976.17,248.55c-5.21,0-9.52,1.67-12.95,5s-5.4,8.57-5.93,15.71h37.57c-.06-3.98-.78-7.52-2.15-10.62-1.38-3.1-3.42-5.56-6.14-7.37-2.72-1.81-6.19-2.72-10.4-2.72Z"/>
        <path class="cls-1" d="M1096.52,229.5c1.35,0,2.91.07,4.7.22,1.78.15,3.23.34,4.34.57l-2.02,25.11c-.88-.29-2.12-.51-3.73-.66-1.61-.15-3-.22-4.17-.22-3.45,0-6.8.44-10.05,1.32s-6.16,2.3-8.73,4.26c-2.58,1.96-4.61,4.54-6.1,7.72-1.49,3.19-2.24,7.1-2.24,11.72v49.95h-26.77v-98.14h20.28l3.95,16.5h1.32c1.93-3.34,4.34-6.39,7.24-9.17,2.9-2.78,6.2-5,9.92-6.67,3.72-1.67,7.74-2.5,12.07-2.5Z"/>
      </g>
    </g>
  </g>
</svg>