<svg width="334" height="318" viewBox="0 0 334 318" fill="none" xmlns="http://www.w3.org/2000/svg">
<rect x="8.5" y="8.5" width="258" height="301" rx="32.5" stroke="#1C1C1C" stroke-width="17"/>
<path d="M59 85H81C88.1797 85 94 90.8203 94 98V120C94 127.18 88.1797 133 81 133H59C51.8203 133 46 127.18 46 120V98C46 90.8203 51.8203 85 59 85Z" stroke="#1C1C1C" stroke-width="14"/>
<path d="M94.2136 175.792C93.2834 174.859 91.7581 174.859 90.8279 175.792L62.6654 203.948L48.1618 189.345C47.2316 188.408 45.7166 188.408 44.7796 189.345L39.6977 194.424C38.7674 195.351 38.7674 196.876 39.6977 197.809L60.9589 219.211C61.8891 220.138 63.4041 220.138 64.3446 219.211L99.2921 184.26C100.236 183.326 100.236 181.798 99.2921 180.861L94.2136 175.792Z" fill="#1C1C1C"/>
<path d="M115 184C115 180.686 117.686 178 121 178H227C230.314 178 233 180.686 233 184V185C233 188.314 230.314 191 227 191H121C117.686 191 115 188.314 115 185L115 184Z" fill="#1C1C1C"/>
<path d="M119 115C119 111.686 121.686 109 125 109H231C234.314 109 237 111.686 237 115V116C237 119.314 234.314 122 231 122H125C121.686 122 119 119.314 119 116V115Z" fill="#1C1C1C"/>
<path d="M115 210C115 206.686 117.686 204 121 204H227C230.314 204 233 206.686 233 210V211C233 214.314 230.314 217 227 217H121C117.686 217 115 214.314 115 211L115 210Z" fill="#1C1C1C"/>
<path d="M119 89C119 85.6863 121.686 83 125 83L231 83C234.314 83 237 85.6863 237 89V90C237 93.3137 234.314 96 231 96H125C121.686 96 119 93.3137 119 90V89Z" fill="#1C1C1C"/>
<path d="M323.75 81.5032V81.5042C324.4 82.0369 325.295 83.1554 325.885 84.6702V84.6712C325.904 84.7206 325.921 84.7699 325.938 84.8177L296.896 89.2435L287.97 90.6038L291.512 98.9095C295.796 108.956 299.848 120.21 303.422 132.149L304.131 134.545V134.547C313.787 167.611 319.669 205.506 317.084 237.763L316.955 239.295C314.048 271.961 302.638 296.485 280.146 306.404L279.067 306.866L279.058 306.868C270.508 310.42 259.979 312.095 247.062 311.109C246.76 310.865 246.314 310.409 245.849 309.696L245.634 309.348C244.994 308.26 244.676 307.226 244.566 306.491C274.576 281.499 282.274 247.541 279.302 213.258L279.15 211.604C276.22 181.243 265.06 149.697 253.268 122.375L252.125 119.744L248.217 110.806L241.001 117.37L215.111 140.924C214.954 140.698 214.793 140.443 214.635 140.157C214.028 139.06 213.735 138.025 213.662 137.319L213.644 137.037V137.034L210.742 -9.19208L323.75 81.5032ZM329.503 84.2747L329.48 84.2776C329.488 84.2764 329.497 84.275 329.505 84.2737L329.503 84.2747Z" fill="#0D7108" stroke="#1C1C1C" stroke-width="14"/>
</svg>
