<?xml version="1.0" encoding="UTF-8"?>
<svg xmlns="http://www.w3.org/2000/svg" viewBox="0 0 1229.71 378.38">
  <defs>
    <style>
      .cls-1 {
        font-family: OpenSans-ExtraBold, 'Open Sans';
        font-size: 170px;
      }

      .cls-1, .cls-2, .cls-3 {
        fill:rgb(39, 39, 48);
      }

      .cls-1, .cls-3 {
        font-weight: 700;
      }

      .cls-4 {
        fill: #4caf50;
      }

      .cls-3 {
        font-family: OpenSans-Bold, 'Open Sans';
        font-size: 170px;
      }
    </style>
  </defs>
  <g id="Warstwa_1" data-name="Warstwa 1">
    <g>
      <path class="cls-2" d="M67.42,149.83h47.23c3.57,0,6.48-2.9,6.48-6.48v-47.23c0-3.57-2.9-6.48-6.48-6.48h-47.23c-3.57,0-6.48,2.9-6.48,6.48v47.23c0,3.57,2.9,6.48,6.48,6.48ZM72.37,101.07h37.33v37.33h-37.33v-37.33Z"/>
      <path class="cls-2" d="M114.65,248.1h-47.23c-3.57,0-6.48,2.9-6.48,6.48v47.23c0,3.57,2.9,6.48,6.48,6.48h47.23c3.57,0,6.48-2.9,6.48-6.48v-47.23c0-3.57-2.9-6.48-6.48-6.48ZM109.7,296.85h-37.33v-37.33h37.33v37.33Z"/>
      <path class="cls-4" d="M131.64,178.62l-12.19,12.19h0l-18.28,18.28c-1.12,1.12-2.58,1.67-4.04,1.67s-2.92-.55-4.04-1.67l-12.19-12.19c-2.23-2.23-2.23-5.85,0-8.08,2.23-2.23,5.85-2.23,8.08,0l8.15,8.15,12.57-12.57,9.75-9.76,4.11-4.11c2.23-2.23,5.85-2.23,8.08,0,2.23,2.23,2.23,5.85,0,8.08Z"/>
      <path class="cls-2" d="M121.12,211.15v6.1c0,6.51-5.3,11.8-11.8,11.8h-36.57c-6.51,0-11.8-5.3-11.8-11.8v-36.57c0-6.51,5.3-11.8,11.8-11.8h36.57c4.3,0,8.07,2.32,10.14,5.78l-9.75,9.76v-3.73c0-.21-.17-.38-.38-.38h-36.57c-.21,0-.38.17-.38.38v36.57c0,.21.17.38.38.38h36.57c.21,0,.38-.17.38-.38v-6.1c0-3.15,2.56-5.71,5.71-5.71s5.71,2.56,5.71,5.71Z"/>
      <path class="cls-2" d="M139.79,107.17h18.28c3.16,0,5.71-2.56,5.71-5.71s-2.56-5.71-5.71-5.71h-18.28c-3.16,0-5.71,2.56-5.71,5.71s2.56,5.71,5.71,5.71Z"/>
      <path class="cls-2" d="M174.63,216.33c-4.66-2.21-8.67-5.59-11.62-9.79-.26-.36-.48-.74-.72-1.11h-22.51c-3.16,0-5.71,2.56-5.71,5.71s2.56,5.71,5.71,5.71h36.1c-.42-.18-.85-.34-1.26-.53Z"/>
      <path class="cls-2" d="M158.38,192.3l-.04-.34-.03-.34c-.32-3.64-.47-7.13-.48-10.56h-18.03c-3.16,0-5.71,2.56-5.71,5.71s2.56,5.71,5.71,5.71h18.61c0-.06-.02-.13-.02-.19Z"/>
      <path class="cls-2" d="M179.11,120.12h-39.32c-3.16,0-5.71,2.56-5.71,5.71s2.56,5.71,5.71,5.71h30.65c2.52-4.11,5.41-7.93,8.66-11.43Z"/>
      <path class="cls-2" d="M139.79,271.71h24.38c3.16,0,5.71-2.56,5.71-5.71s-2.56-5.71-5.71-5.71h-24.38c-3.16,0-5.71,2.56-5.71,5.71s2.56,5.71,5.71,5.71Z"/>
      <path class="cls-2" d="M231.2,284.66h-91.41c-3.16,0-5.71,2.56-5.71,5.71s2.56,5.71,5.71,5.71h91.41c3.16,0,5.71-2.56,5.71-5.71s-2.56-5.71-5.71-5.71Z"/>
    </g>
  </g>
  <g id="Warstwa_2" data-name="Warstwa 2">
    <g>
      <path class="cls-4" d="M245.08,213.64c-4.13.57-7.01,4.41-6.43,8.54.41,3.02-.19,6.08-1.72,8.75-.09.15-.28.41-.53.74-.52.61-1.42,1.44-2.6,2.31-1.04.75-2.25,1.53-3.62,2.32-2.37,1.39-5.14,2.72-7.9,3.96-3.03,1.31-6.02,2.48-8.68,3.44-.25-1.6-.54-3.36-.77-5.19-.28-2.19-.55-4.52-.72-6.78-.26-3.44-.34-6.8-.06-9.48.11-1.36.32-2.52.55-3.44s.5-1.5.65-1.75c1.53-2.63,3.93-4.72,6.76-5.85,3.87-1.53,5.78-5.97,4.21-9.84-1.68-3.92-6.08-5.84-9.94-4.27-5.96,2.38-10.98,6.7-14.22,12.26-.65,1.11-1.16,2.27-1.57,3.45-.76,2.17-1.2,4.38-1.47,6.59-.26,1.95-.33,3.94-.36,5.96-.02,3.51.2,7.09.55,10.51.54,5.12,1.33,9.92,2.01,13.46.68,3.54,1.2,5.85,1.22,5.93.49,2.01,1.75,3.73,3.53,4.8,1.82,1.06,3.94,1.31,5.93.75.08-.02,2.03-.58,5.06-1.59,2.24-.76,5.1-1.77,8.2-2.97,2.33-.91,4.79-1.95,7.27-3.11,3.74-1.71,7.46-3.68,10.83-5.98,1.71-1.14,3.31-2.37,4.78-3.78,1.47-1.41,2.81-2.97,3.94-4.85,3.28-5.57,4.56-12.07,3.65-18.46-.57-4.13-4.41-7.01-8.54-6.43Z"/>
      <path class="cls-4" d="M356.05,52.83c-.39-7.17-1.3-13.86-2.88-19.86-1.06-4.04-2.44-7.79-4.24-11.21l-.08.02c-.84-1.57-2.09-2.91-3.56-3.77-1.53-.92-3.37-1.42-5.24-1.36l.08-.02c-3.79.06-7.69.7-11.73,1.76-3.92,1.03-7.99,2.49-12.18,4.28-7.31,3.12-14.92,7.35-22.66,12.39-11.56,7.58-23.25,16.99-33.82,27.53-10.56,10.57-20.07,22.23-27.18,34.38-3.61,6.13-6.76,12.52-9.43,19.09-1.21.28-2.42.55-3.62.87-3.96,1.04-7.81,2.36-11.54,4.11-3.7,1.7-7.25,3.84-10.51,6.41-5.94,4.73-10.41,10.36-13.64,16.26-2.43,4.41-4.18,8.97-5.49,13.43-1.91,6.71-2.76,13.22-3.04,18.99s0,10.74.32,14.38c.08.62.17,1.28.33,1.88.36,1.36.96,2.66,1.76,3.77,1.18,1.7,2.77,3.04,4.63,3.92,1.86.88,4.02,1.29,6.19,1.07.62-.08,1.28-.17,1.88-.33.4-.11.79-.25,1.15-.35h.04s28.63-11.02,28.63-11.02c.12.31.26.66.38.97,1.3,3.47,3.78,6.4,7.05,8.24l18.05,10.52c3.25,1.93,6.98,2.61,10.68,2.06.33-.04.7-.1,1.02-.18l4.51,30.26.02.08c.07.41.16.77.27,1.17.38,1.44,1.03,2.77,1.9,3.95,1.27,1.72,2.95,3.07,4.93,3.92,1.98.85,4.24,1.15,6.45.78.41-.07.77-.16,1.17-.27.6-.16,1.19-.36,1.8-.65,2.95-1.29,6.85-3.22,11.1-5.79,3.18-1.91,6.59-4.22,9.98-6.95,5.09-4.08,10.13-9.13,14.32-15.33,2.1-3.08,3.94-6.47,5.45-10.16,1.51-3.69,2.65-7.63,3.29-11.86.62-4.14.73-8.28.37-12.38s-1.08-8.15-2.12-12.11c-.3-1.12-.63-2.23-.97-3.34,4.43-5.58,8.41-11.42,11.96-17.61,5.43-9.26,9.91-19.55,13.55-30.23,5.4-16.05,8.84-33.01,10.22-48.9.68-7.97.85-15.63.45-22.8ZM320.15,103.65c-.39,3.03-1.35,5.97-2.99,8.77s-3.72,5.09-6.16,6.92c-2.44,1.83-5.19,3.11-8.08,3.87s-5.9,1-8.93.61c-3.03-.39-5.9-1.37-8.77-2.99-2.8-1.63-5.09-3.72-6.92-6.16-1.83-2.44-3.11-5.19-3.87-8.08-.76-2.88-1.02-5.98-.61-8.93.39-3.03,1.35-5.97,2.99-8.77s3.72-5.09,6.16-6.92c2.44-1.83,5.19-3.11,8.08-3.87,2.88-.76,5.98-1.02,8.93-.61,3.03.39,5.97,1.35,8.77,2.99,2.8,1.63,5.09,3.72,6.92,6.16,1.83,2.44,3.09,5.12,3.87,8.08.76,2.88,1.02,5.98.61,8.93Z"/>
    </g>
    <path class="cls-2" d="M299.42,259.5c-5.24,3.18-9.9,5.42-12.94,6.76-1.47.67-2.98,1.21-4.62,1.65-.6.16-1.59.42-2.86.63-1.57.26-3.18.39-4.78.39h0c-2.03,0-4.07-.22-6.07-.63v50.16c0,.19-.18.34-.38.34H36.18c-.21,0-.38-.15-.38-.34V60.11c0-.19.18-.34.38-.34h48.75c.07,0,.14,0,.21-.01,5.49,6.67,14.28,11,24.17,11h85.32c9.89,0,18.69-4.33,24.17-11,.07,0,.13.01.2.01h18.91c3.06-3.47,6.29-6.92,9.71-10.34,7.89-7.85,16.53-15.29,25.45-21.96h-48.36v-.34c0-5.88-5.3-10.65-11.8-10.65h-30.85v-.34c0-8.9-8.03-16.14-17.9-16.14h-24.38c-9.87,0-17.9,7.24-17.9,16.14v.34h-30.85c-6.51,0-11.8,4.78-11.8,10.65v.34H30.1C13.5,27.48,0,39.66,0,54.62v269.32c0,14.96,13.5,27.14,30.1,27.14h243.76c16.59,0,30.09-12.18,30.09-27.14v-67.33c-1.48.99-2.99,1.97-4.53,2.89ZM133.32,16.14c0-3.22,2.9-5.84,6.47-5.84h24.38c3.57,0,6.47,2.62,6.47,5.84v.34h-37.32v-.34ZM90.65,27.14c0-.19.17-.34.38-.34h121.89c.21,0,.38.15.38.34v16.48c0,9.28-8.37,16.83-18.67,16.83h-85.32c-10.29,0-18.67-7.55-18.67-16.83v-16.48Z"/>
  </g>
  <g id="Warstwa_3" data-name="Warstwa 3">
    <text class="cls-3" transform="translate(408.47 163.89)"><tspan x="0" y="0">Exam</tspan></text>
    <text class="cls-1" transform="translate(410.67 329.49)"><tspan x="0" y="0">Booster</tspan></text>
    <text/>
  </g>
</svg>