<svg width="926" height="318" viewBox="0 0 926 318" fill="none" xmlns="http://www.w3.org/2000/svg">
<g clip-path="url(#clip0_1305_424)">
<path d="M480.176 174H403.887V45.5039H480.176V73.3652H438.604V93.5801H477.1V121.441H438.604V145.699H480.176V174ZM711.768 174L705.439 149.918H663.691L657.188 174H619.043L660.967 44.9766H707.285L749.736 174H711.768ZM698.232 121.441L692.695 100.348C692.109 98.0625 691.26 94.8105 690.146 90.5918C689.033 86.3145 687.92 81.9199 686.807 77.4082C685.752 72.8379 684.932 69.0879 684.346 66.1582C683.818 69.0879 683.057 72.7207 682.061 77.0566C681.123 81.334 680.127 85.582 679.072 89.8008C678.076 94.0195 677.197 97.5352 676.436 100.348L670.898 121.441H698.232ZM819.697 174L793.418 81.4512H792.627C792.861 83.8535 793.096 87.1055 793.33 91.207C793.623 95.3086 793.887 99.7324 794.121 104.479C794.355 109.225 794.473 113.795 794.473 118.189V174H763.711V45.5039H809.941L836.748 136.734H837.451L863.73 45.5039H910.049V174H878.145V117.662C878.145 113.619 878.203 109.283 878.32 104.654C878.496 99.9668 878.672 95.5723 878.848 91.4707C879.082 87.3105 879.287 84.0293 879.463 81.627H878.672L852.744 174H819.697Z" fill="#1C1C1C"/>
<path d="M618.428 174H578.262L553.213 133.834L528.428 174H489.141L531.768 108.258L491.689 45.5039H530.186L553.389 85.2305L575.713 45.5039H615.352L574.658 110.982L618.428 174Z" fill="#0D7108"/>
<path d="M404.332 181.905H429.881C441.449 181.905 449.872 183.571 455.15 186.903C460.466 190.235 463.124 195.494 463.124 202.682C463.124 207.548 461.963 211.572 459.642 214.754C457.321 217.936 454.27 219.827 450.489 220.426V220.987C455.618 222.11 459.343 224.263 461.664 227.445C464.022 230.589 465.201 234.838 465.201 240.191C465.201 247.678 462.506 253.518 457.115 257.711C451.725 261.904 444.369 264 435.047 264H404.332V181.905ZM421.739 196.168V214.417H431.847C436.601 214.417 440.026 213.688 442.123 212.228C444.219 210.768 445.267 208.428 445.267 205.208C445.267 201.952 444.125 199.631 441.842 198.246C439.558 196.861 435.908 196.168 430.892 196.168H421.739ZM421.739 228.231V249.625H433.082C437.874 249.625 441.411 248.708 443.695 246.874C445.978 245.039 447.12 242.232 447.12 238.451C447.12 231.638 442.254 228.231 432.521 228.231H421.739ZM488.055 254.173C481.317 246.874 477.948 236.392 477.948 222.728C477.948 209.064 481.317 198.639 488.055 191.451C494.831 184.226 504.508 180.614 517.086 180.614C529.701 180.614 539.36 184.245 546.061 191.507C552.761 198.77 556.112 209.214 556.112 222.84C556.112 236.429 552.743 246.874 546.004 254.173C539.266 261.473 529.608 265.123 517.03 265.123C504.452 265.123 494.793 261.473 488.055 254.173ZM517.142 195.101C510.217 195.101 504.994 197.441 501.476 202.12C497.957 206.762 496.197 213.669 496.197 222.84C496.197 241.296 503.141 250.523 517.03 250.523C530.918 250.523 537.862 241.296 537.862 222.84C537.862 204.347 530.956 195.101 517.142 195.101ZM579.583 254.173C572.845 246.874 569.476 236.392 569.476 222.728C569.476 209.064 572.845 198.639 579.583 191.451C586.359 184.226 596.036 180.614 608.614 180.614C621.23 180.614 630.888 184.245 637.589 191.507C644.29 198.77 647.64 209.214 647.64 222.84C647.64 236.429 644.271 246.874 637.533 254.173C630.794 261.473 621.136 265.123 608.558 265.123C595.98 265.123 586.322 261.473 579.583 254.173ZM608.67 195.101C601.745 195.101 596.523 197.441 593.004 202.12C589.485 206.762 587.726 213.669 587.726 222.84C587.726 241.296 594.67 250.523 608.558 250.523C622.446 250.523 629.391 241.296 629.391 222.84C629.391 204.347 622.484 195.101 608.67 195.101ZM659.544 244.01C665.235 246.518 669.97 248.277 673.751 249.288C677.569 250.261 681.219 250.748 684.701 250.748C688.22 250.748 690.99 250.018 693.011 248.558C695.033 247.098 696.043 244.927 696.043 242.044C696.043 240.435 695.613 239.031 694.752 237.833C693.891 236.598 692.562 235.381 690.765 234.183C689.006 232.948 685.524 231.113 680.321 228.68C675.117 226.209 671.28 223.907 668.81 221.773C663.307 217.019 660.555 211.067 660.555 203.917C660.555 196.767 663.007 191.114 667.911 186.959C672.853 182.804 679.666 180.726 688.351 180.726C695.65 180.726 703.774 182.654 712.721 186.51L707.105 200.042C702.875 198.32 699.3 197.085 696.38 196.336C693.46 195.588 690.484 195.213 687.452 195.213C684.457 195.213 682.062 195.981 680.265 197.516C678.468 199.013 677.569 201.016 677.569 203.524C677.569 205.059 677.906 206.406 678.58 207.567C679.291 208.69 680.414 209.794 681.949 210.88C683.521 211.928 687.228 213.837 693.067 216.607C700.704 220.239 705.945 223.926 708.79 227.669C711.673 231.263 713.114 235.774 713.114 241.202C713.114 248.539 710.437 254.398 705.084 258.778C699.731 263.008 692.487 265.123 683.353 265.123C674.219 265.123 666.283 263.476 659.544 260.182V244.01ZM781.957 196.393H759.664V264H742.257V196.393H719.964V181.905H781.957V196.393ZM841.871 196.168H811.998V214.193H839.737V228.456H811.998V249.625H841.871V264H794.591V181.905H841.871V196.168ZM859.054 181.905H882.975C894.093 181.905 902.328 183.927 907.682 187.97C913.072 192.013 915.768 198.189 915.768 206.5C915.768 211.329 914.439 215.634 911.781 219.415C909.123 223.159 905.361 226.097 900.494 228.231C913.671 247.922 921.72 259.845 924.64 264H905.323L885.726 232.499H876.461V264H859.054V181.905ZM876.461 196.168V218.348H882.076C887.579 218.348 891.641 217.431 894.261 215.597C896.882 213.762 898.192 210.899 898.192 207.005C898.192 203.112 896.863 200.342 894.205 198.695C891.585 197.01 887.429 196.168 881.739 196.168H876.461Z" fill="#1C1C1C"/>
<rect x="8.5" y="8.5" width="258" height="301" rx="32.5" stroke="#1C1C1C" stroke-width="17"/>
<path d="M59 85H81C88.1797 85 94 90.8203 94 98V120C94 127.18 88.1797 133 81 133H59C51.8203 133 46 127.18 46 120V98C46 90.8203 51.8203 85 59 85Z" stroke="#1C1C1C" stroke-width="14"/>
<path d="M94.2136 175.792C93.2834 174.859 91.7581 174.859 90.8279 175.792L62.6654 203.948L48.1618 189.345C47.2316 188.408 45.7166 188.408 44.7796 189.345L39.6977 194.424C38.7674 195.351 38.7674 196.876 39.6977 197.809L60.9589 219.211C61.8891 220.138 63.4041 220.138 64.3446 219.211L99.2921 184.26C100.236 183.326 100.236 181.798 99.2921 180.861L94.2136 175.792Z" fill="#1C1C1C"/>
<path d="M115 184C115 180.686 117.686 178 121 178H227C230.314 178 233 180.686 233 184V185C233 188.314 230.314 191 227 191H121C117.686 191 115 188.314 115 185L115 184Z" fill="#1C1C1C"/>
<path d="M119 115C119 111.686 121.686 109 125 109H231C234.314 109 237 111.686 237 115V116C237 119.314 234.314 122 231 122H125C121.686 122 119 119.314 119 116V115Z" fill="#1C1C1C"/>
<path d="M115 210C115 206.686 117.686 204 121 204H227C230.314 204 233 206.686 233 210V211C233 214.314 230.314 217 227 217H121C117.686 217 115 214.314 115 211L115 210Z" fill="#1C1C1C"/>
<path d="M119 89C119 85.6863 121.686 83 125 83L231 83C234.314 83 237 85.6863 237 89V90C237 93.3137 234.314 96 231 96H125C121.686 96 119 93.3137 119 90V89Z" fill="#1C1C1C"/>
<path d="M323.75 81.5032V81.5042C324.4 82.0369 325.295 83.1554 325.885 84.6702V84.6712C325.904 84.7206 325.921 84.7699 325.938 84.8177L296.896 89.2435L287.97 90.6038L291.512 98.9095C295.796 108.956 299.848 120.21 303.422 132.149L304.131 134.545V134.547C313.787 167.611 319.669 205.506 317.084 237.763L316.955 239.295C314.048 271.961 302.638 296.485 280.146 306.404L279.067 306.866L279.058 306.868C270.508 310.42 259.979 312.095 247.062 311.109C246.76 310.865 246.314 310.409 245.849 309.696L245.634 309.348C244.994 308.26 244.676 307.226 244.566 306.491C274.576 281.499 282.274 247.541 279.302 213.258L279.15 211.604C276.22 181.243 265.06 149.697 253.268 122.375L252.125 119.744L248.217 110.806L241.001 117.37L215.111 140.924C214.954 140.698 214.793 140.443 214.635 140.157C214.028 139.06 213.735 138.025 213.662 137.319L213.644 137.037V137.034L210.742 -9.19208L323.75 81.5032ZM329.503 84.2747L329.48 84.2776C329.488 84.2764 329.497 84.275 329.505 84.2737L329.503 84.2747Z" fill="#0D7108" stroke="#1C1C1C" stroke-width="14"/>
</g>
<defs>
<clipPath id="clip0_1305_424">
<rect width="926" height="318" fill="white"/>
</clipPath>
</defs>
</svg>
